<?xml version="1.0" encoding="UTF-8" standalone="no"?><!DOCTYPE svg PUBLIC "-//W3C//DTD SVG 1.1//EN" "http://www.w3.org/Graphics/SVG/1.1/DTD/svg11.dtd"><svg width="100%" height="100%" viewBox="0 0 563 562" version="1.1" xmlns="http://www.w3.org/2000/svg" xmlns:xlink="http://www.w3.org/1999/xlink" xml:space="preserve" xmlns:serif="http://www.serif.com/" style="fill-rule:evenodd;clip-rule:evenodd;stroke-linejoin:round;stroke-miterlimit:2;"><rect id="icon" x="0.654" y="0" width="562" height="562" style="fill:url(#_Radial1);"/><g id="icon1" serif:id="icon"><g><path d="M326.064,372.507c17.061,10.696 37.069,15.733 56.812,15.33c-16.938,18.101 -33.528,36.247 -48.442,55.175c-11.046,14.018 -21.32,28.676 -29.129,44.792l-0.481,1.007l-24.055,51.068c-12.996,-27.904 -24.427,-56.769 -41.984,-81.929c-17.144,-24.564 -37.091,-47.092 -57.601,-69.327c1.512,0.113 3.031,0.19 4.552,0.234c19.599,0.557 37.466,-4.799 53.246,-13.883c14.746,16.545 28.958,33.56 41.82,51.777l0.217,0.312c0.666,-0.939 1.339,-1.873 2.011,-2.805c13.236,-18.238 27.876,-35.201 43.034,-51.751Zm-191.606,-119.215c8.875,13.227 18.769,25.808 28.818,37.888c8.295,9.967 16.881,19.672 25.598,29.258c-9.572,2.507 -19.569,2.357 -28.934,-1.032c-26.31,-9.52 -36.675,-42.464 -25.482,-66.114Zm295.069,-1.139c3.921,9.936 4.752,21.107 2.189,31.362c-6.532,26.126 -31.333,36.642 -55.809,35.677c19.153,-20.949 37.612,-42.722 53.62,-67.039Zm-350.066,11.378c-18.524,-32.251 -31.38,-68.107 -31.527,-106.014l-0.001,0c-0,-56.366 37.858,-112.969 93.539,-129.975c12.058,-3.683 24.787,-5.495 37.262,-5.419c32.394,0.412 61.795,22.035 82.322,44.766c7.491,8.295 14.357,17.134 20.756,26.288c24.312,-34.394 56.384,-67.269 97.984,-70.371c56.901,-4.242 114.269,38.759 130.53,96.979c10.04,35.954 4.235,75.585 -9.703,110.091c-4.882,12.083 -10.633,23.637 -17.066,34.77c-0.174,-2.921 -0.432,-5.836 -0.768,-8.737c-2.662,-22.866 -12.058,-43.374 -25.711,-59.798c3.805,-12.55 6.039,-25.56 6.037,-38.881c-0.002,-41.015 -32.701,-81.068 -75.433,-82.296c-16.385,-0.471 -30.966,11.371 -42.833,23.593c-16.034,16.515 -29.155,35.999 -39.532,56.377l-23.794,47.768c-20.627,-41.971 -38.137,-87.659 -76.542,-116.886c-2.538,-1.932 -5.174,-3.735 -7.927,-5.338c-5.981,-3.479 -12.529,-6.014 -19.48,-6.013c-31.403,0.218 -60.468,22.54 -71.698,52.317c-7.529,19.958 -6.511,42.064 -1.678,61.673c0.385,1.565 0.794,3.121 1.226,4.668c-15.513,19.404 -24.374,44.623 -25.963,70.438Z" style="fill:#fef2f2;fill-rule:nonzero;"/><path d="M299.806,286.512c9.705,15.358 21.192,26.955 34.47,34.811c13.265,7.849 28.226,11.779 44.861,11.779c20.014,0 36.356,-5.852 49.033,-17.538c12.677,-11.868 19.019,-26.961 19.019,-45.28c-0,-17.619 -5.845,-32.277 -17.533,-43.964c-11.69,-11.691 -26.35,-17.536 -43.98,-17.536c-16.238,-0 -31.002,5.932 -44.273,17.795c-13.072,11.691 -26.939,31.668 -41.597,59.933m-36.253,-28.002c-9.704,-15.356 -21.191,-26.873 -34.469,-34.546c-13.072,-7.678 -28.028,-11.514 -44.86,-11.514c-20.214,-0 -36.656,5.756 -49.333,17.273c-12.478,11.514 -18.715,26.52 -18.715,45.015c-0,17.619 5.842,32.279 17.527,43.964c11.691,11.691 26.35,17.538 43.98,17.538c16.238,-0 31.002,-5.934 44.273,-17.797c13.266,-11.867 27.138,-31.844 41.597,-59.933m21.099,47.89c-13.87,23.559 -28.624,40.919 -44.273,52.084c-15.45,10.992 -32.486,16.485 -51.108,16.485c-26.944,0 -49.623,-9.682 -68.046,-29.047c-18.425,-19.542 -27.633,-43.794 -27.633,-72.759c0,-30.534 8.219,-55.22 24.661,-74.063c16.638,-18.841 38.234,-28.265 64.776,-28.265c18.82,0 35.756,5.499 50.811,16.486c15.254,10.992 30.011,28.53 44.273,52.606c13.47,-24.076 28.028,-41.785 43.677,-53.129c15.65,-11.515 33.083,-17.273 52.3,-17.273c26.542,0 49.127,9.858 67.748,29.575c18.622,19.542 27.931,43.883 27.931,73.017c-0,30.534 -8.318,55.133 -24.958,73.805c-16.442,18.672 -37.937,28.002 -64.48,28.002c-18.622,-0 -35.361,-5.147 -50.218,-15.44c-14.657,-10.47 -29.812,-27.831 -45.466,-52.079" style="fill:#fecaca;fill-opacity:0.97;fill-rule:nonzero;"/></g></g><defs><radialGradient id="_Radial1" cx="0" cy="0" r="1" gradientUnits="userSpaceOnUse" gradientTransform="matrix(281,0,0,281,281.654,281)"><stop offset="0" style="stop-color:#aa0f0d;stop-opacity:1"/><stop offset="0.48" style="stop-color:#9f0e0d;stop-opacity:1"/><stop offset="1" style="stop-color:#820c0c;stop-opacity:1"/></radialGradient></defs></svg>
