<?xml version="1.0" encoding="UTF-8" standalone="no"?>
<!DOCTYPE svg PUBLIC "-//W3C//DTD SVG 1.1//EN" "http://www.w3.org/Graphics/SVG/1.1/DTD/svg11.dtd">
<svg
  width="100%"
  height="100%"
  viewBox="0 0 358 129"
  version="1.1"
  xmlns="http://www.w3.org/2000/svg"
  xmlns:xlink="http://www.w3.org/1999/xlink"
  xml:space="preserve"
  xmlns:serif="http://www.serif.com/"
  style="
    fill-rule: evenodd;
    clip-rule: evenodd;
    stroke-linejoin: round;
    stroke-miterlimit: 2;
  "
>
  <g transform="matrix(1,0,0,1,-71,-186)">
    <g transform="matrix(1,0,0,1,428.981,239.85)">
      <path
        d="M0,21.488C-0.043,21.013 -0.157,20.522 -0.353,20.016C-1.544,16.929 -6.964,19.809 -8.812,20.583C-12.144,21.976 -15.952,23.814 -19.64,22.76C-20.661,22.468 -20.361,21.6 -19.64,21.159C-19.28,20.94 -9.809,15.592 -7.022,3.741C-2.566,-15.215 -16.249,-20.487 -21.647,-21.127C-27.138,-21.777 -33.26,-20.93 -35.841,-19.894C-43.152,-16.962 -45.062,-10.444 -45.565,-6.538C-46.259,-1.168 -46.336,8.204 -47.004,12.422C-47.442,15.198 -49.511,19.413 -53.595,19.012C-61.467,18.239 -65.083,15.221 -64.833,10.27C-64.657,6.79 -64.707,6.095 -63.609,-1.626C-62.669,-8.237 -62.07,-9.817 -62.07,-11.329C-62.07,-15.661 -67.905,-16.535 -69.854,-14.587C-71.361,-13.08 -71.738,-10.005 -72.114,-4.815C-72.469,0.062 -73.218,6.409 -74.186,10.28C-75.691,16.305 -76.294,16.747 -77.669,18.471C-80.524,22.053 -85.797,20.94 -88.371,18.499C-89.887,17.061 -90.09,15.784 -89.798,11.561C-89.504,7.338 -88.811,-0.019 -87.842,-7.691C-86.994,-14.403 -87.578,-15.412 -89.642,-17.295C-91.562,-19.046 -98.922,-18.786 -102.328,-18.786C-107.601,-18.786 -107.287,-16.282 -107.633,-7.74C-107.785,-4.009 -107.959,1.649 -108.331,6.03C-108.938,13.156 -122.567,18.525 -128.836,18.201C-135.333,17.867 -135.958,5.763 -136.369,2.949C-136.779,0.134 -136.947,-24.162 -136.243,-24.983C-135.745,-25.564 -131.835,-26.005 -127.378,-26.875C-117.512,-28.803 -116.095,-30.068 -116.079,-33.153C-116.072,-34.664 -116.17,-36.781 -117.852,-37.349C-118.835,-37.681 -121.388,-38.062 -124.777,-38.46C-134.548,-39.608 -135.924,-39.255 -135.979,-40.493C-136.072,-42.658 -135.867,-46.823 -136.04,-48.465C-136.468,-52.496 -141.201,-53.853 -146.539,-53.501C-147.593,-53.432 -149.047,-53.091 -149.164,-51.683C-149.281,-50.275 -149.271,-49.188 -149.442,-46.801C-149.819,-41.5 -149.926,-40.927 -151.983,-40.935C-153.819,-40.944 -169.073,-42.291 -172.007,-41.353C-174.938,-40.414 -174.822,-38.421 -175.057,-37.423C-175.291,-36.427 -174.763,-30.445 -174.47,-27.864C-174.177,-25.283 -173.61,-21.772 -173.26,-21.244C-172.907,-20.716 -171.805,-19.22 -168.743,-19.602C-158.338,-20.903 -151.397,-22.473 -149.989,-22.825C-148.582,-23.177 -148.42,-23.352 -148.406,-22.239C-148.397,-21.607 -148.137,-8.923 -148.092,-5.158C-148.015,1.284 -146.925,19.948 -164.318,22.842C-171.555,24.045 -178.338,21.941 -181.422,18.548C-183.172,16.622 -182.313,16.371 -181.541,15.116C-180.37,13.215 -170.595,1.75 -178.787,-10.138C-183.618,-17.152 -195.2,-17.708 -199.406,-15.887C-202.664,-14.478 -205.299,-10.106 -205.809,-4.778C-207.377,11.668 -197.951,21.838 -197.586,22.465C-197.146,23.217 -198.794,25.638 -204.552,26.481C-212.273,27.611 -224.131,18.313 -223.823,17.103C-223.675,16.523 -218.425,7.939 -218.299,-0.354C-218.256,-3.177 -219.188,-6.895 -221.124,-10.649C-223.059,-14.402 -229.152,-20.197 -235.749,-18.926C-251.27,-15.937 -249.501,-0.633 -248.422,3.545C-246.193,12.183 -240.966,19.809 -240.111,21.334C-238.95,23.406 -272.951,36.876 -274.271,24.266C-275.578,11.768 -256.988,-15.182 -258.452,-25.642C-259.77,-35.057 -266.116,-37.031 -271.633,-37.128C-276.998,-37.224 -278.413,-36.369 -280.227,-35.317C-281.274,-34.71 -282.775,-33.508 -284.861,-35.492C-286.248,-36.812 -287.164,-37.736 -288.63,-38.908C-289.376,-39.505 -290.565,-40.258 -292.561,-40.55C-294.554,-40.844 -297.135,-40.55 -298.776,-39.847C-300.419,-39.143 -301.709,-37.911 -303.059,-36.738C-304.407,-35.565 -307.829,-31.733 -311.02,-33.146C-312.401,-33.759 -317.089,-36.099 -320.468,-37.561C-326.996,-40.386 -336.41,-35.81 -339.8,-29.784C-344.842,-20.82 -354.801,14.404 -356.309,19.05C-359.691,29.48 -352.024,37.984 -341.683,37.494C-337.313,37.288 -334.402,35.689 -331.641,30.668C-330.045,27.768 -315.054,-11.393 -313.939,-13.27C-313.13,-14.632 -310.433,-16.43 -308.146,-15.257C-305.858,-14.084 -305.403,-11.638 -305.741,-9.333C-306.288,-5.607 -316.861,18.282 -317.266,20.987C-317.958,25.584 -315.772,28.139 -311.002,28.39C-307.733,28.561 -304.474,27.384 -301.888,22.509C-300.441,19.781 -283.768,-13.615 -282.293,-15.844C-280.672,-18.291 -279.367,-19.096 -277.717,-19.011C-276.435,-18.945 -274.386,-18.617 -274.898,-14.776C-275.4,-11.011 -288.807,13.496 -290.214,19.495C-292.348,28.596 -286.51,40.837 -270.88,41.401C-263.111,41.682 -245.131,38.296 -235,30.618C-231.323,27.831 -232.296,27.591 -230.005,29.62C-226.71,32.539 -220.59,36.649 -214.564,36.649C-200.877,36.649 -190.886,28.107 -190.43,27.8C-190.281,27.7 -190.085,27.722 -189.965,27.853C-189.135,28.752 -180.649,33.478 -174.706,33.674C-160.552,34.138 -152.169,26.285 -149.003,22.591C-146.612,19.801 -144.856,17.279 -144.14,16.21C-143.956,15.937 -143.568,15.909 -143.348,16.152C-142.5,17.081 -136.118,28.809 -123.438,27.192C-116.366,26.29 -105.847,20.324 -105.11,19.52C-104.945,19.34 -104.648,19.398 -104.565,19.629C-104.195,20.65 -102.577,26.406 -96.092,30.983C-90.776,34.736 -80.546,35.488 -76.006,32.992C-72.243,30.924 -70.733,29.602 -68.098,26.967C-66.965,25.834 -65.241,24.684 -62.134,25.345C-58.66,26.081 -49.474,27.706 -48.891,27.984C-48.231,28.299 -48.128,29.499 -48.325,30.746C-48.638,32.72 -49.383,39.631 -50.145,46.082C-50.907,52.533 -53.344,74.059 -47.572,74.858C-44.084,75.341 -41.056,72.039 -40.255,68.817C-38.248,60.733 -37.881,51.635 -36.56,43.83C-34.986,34.541 -34.358,31.934 -33.794,30.9C-33.325,30.039 -33.322,30.241 -26.821,30.793C-22.315,31.176 -18.662,31.803 -13.233,31.046C-8.737,30.417 0.493,27.012 0,21.488M-224.892,0.608C-225.106,3.648 -225.89,5.578 -227.501,8.376C-228.506,10.122 -229.548,8.817 -230.153,7.953C-231.02,6.714 -235.465,-4.071 -232.071,-6.297C-231.117,-6.922 -229.221,-7.284 -227.851,-6.517C-226.481,-5.749 -225.653,-4.635 -225.275,-3.392C-224.892,-2.131 -224.748,-1.426 -224.892,0.608M-182.767,2.174C-183.165,5.676 -184.649,7.657 -185.198,8.391C-186.166,9.69 -186.554,10.2 -187.483,9.257C-188.233,8.495 -191.049,2.772 -191.457,-1.001C-191.675,-3.033 -191.114,-5.93 -189.408,-6.612C-187.615,-7.328 -185.796,-7.002 -184.521,-5.336C-182.512,-2.712 -182.485,-0.314 -182.767,2.174M-29.903,17.519C-32.017,18.386 -32.938,17.856 -32.816,14.365C-32.79,13.615 -29.396,-3.896 -22.903,-7.071C-21.063,-7.97 -19.199,-7.929 -17.907,-6.493C-15.462,-3.771 -16.105,0.419 -17.942,4.24C-20.608,9.787 -27,16.329 -29.903,17.519"
        style="fill: white; fill-rule: nonzero"
      />
    </g>
  </g>
</svg>
