<svg xmlns="http://www.w3.org/2000/svg">
  <defs>
    <symbol
      id="heart-outline"
      viewBox="0 0 24 24"
      fill="none"
      stroke="currentColor"
      stroke-width="1.5"
    >
      <path
        stroke-linecap="round"
        stroke-linejoin="round"
        d="M21 8.25c0-2.485-2.099-4.5-4.688-4.5-1.935 0-3.597 1.126-4.312 2.733-.715-1.607-2.377-2.733-4.313-2.733C5.1 3.75 3 5.765 3 8.25c0 7.22 9 12 9 12s9-4.78 9-12Z"
      />
    </symbol>
    <symbol id="heart-solid" viewBox="0 0 24 24" fill="currentColor">
      <path
        d="m11.645 20.91-.007-.003-.022-.012a15.247 15.247 0 0 1-.383-.218 25.18 25.18 0 0 1-4.244-3.17C4.688 15.36 2.25 12.174 2.25 8.25 2.25 5.322 4.714 3 7.688 3A5.5 5.5 0 0 1 12 5.052 5.5 5.5 0 0 1 16.313 3c2.973 0 5.437 2.322 5.437 5.25 0 3.925-2.438 7.111-4.739 9.256a25.175 25.175 0 0 1-4.244 3.17 15.247 15.247 0 0 1-.383.219l-.022.012-.007.004-.003.001a.752.752 0 0 1-.704 0l-.003-.001Z"
      />
    </symbol>
    <symbol id="infinity" viewBox="0 0 24 24" fill="currentColor">
      <path
        d="M16.433 8.596a4.282 4.282 0 0 0-3.036 1.246l-1.396 1.34l-1.375-1.32a4.287 4.287 0 0 0-3.055-1.266a4.289 4.289 0 0 0-3.053 1.266a4.288 4.288 0 0 0-1.267 3.055c0 1.152.449 2.238 1.266 3.053a4.285 4.285 0 0 0 3.054 1.266a4.272 4.272 0 0 0 3.036-1.248l1.395-1.338l1.376 1.32c.815.816 1.901 1.266 3.055 1.266s2.238-.449 3.053-1.266c.817-.814 1.267-1.9 1.267-3.055s-.449-2.238-1.266-3.055a4.296 4.296 0 0 0-3.054-1.264m-7.576 5.605c-.687.688-1.884.688-2.572 0a1.807 1.807 0 0 1-.533-1.285c0-.486.189-.941.535-1.287c.342-.344.799-.533 1.284-.533s.942.189 1.305.551l1.321 1.27zm8.861 0c-.687.689-1.866.705-2.59-.018l-1.321-1.27l1.339-1.285c.688-.688 1.886-.688 2.573-.002c.344.346.533.801.533 1.287s-.19.944-.534 1.288"
      />
    </symbol>
    <symbol id="home" viewBox="0 0 24 24" fill="currentColor">
      <path
        d="M11.47 3.841a.75.75 0 0 1 1.06 0l8.69 8.69a.75.75 0 1 0 1.06-1.061l-8.689-8.69a2.25 2.25 0 0 0-3.182 0l-8.69 8.69a.75.75 0 1 0 1.061 1.06l8.69-8.689Z"
      />
      <path
        d="m12 5.432 8.159 8.159c.03.03.06.058.091.086v6.198c0 1.035-.84 1.875-1.875 1.875H15a.75.75 0 0 1-.75-.75v-4.5a.75.75 0 0 0-.75-.75h-3a.75.75 0 0 0-.75.75V21a.75.75 0 0 1-.75.75H5.625a1.875 1.875 0 0 1-1.875-1.875v-6.198a2.29 2.29 0 0 0 .091-.086L12 5.432Z"
      />
    </symbol>
    <symbol id="external-link" viewBox="0 0 24 24" fill="currentColor">
      <path
        fill-rule="evenodd"
        clip-rule="evenodd"
        d="M15.75 2.25H21a.75.75 0 01.75.75v5.25a.75.75 0 01-1.5 0V4.81L8.03 17.03a.75.75 0 01-1.06-1.06L19.19 3.75h-3.44a.75.75 0 010-1.5zm-10.5 4.5a1.5 1.5 0 00-1.5 1.5v10.5a1.5 1.5 0 001.5 1.5h10.5a1.5 1.5 0 001.5-1.5V10.5a.75.75 0 011.5 0v8.25a3 3 0 01-3 3H5.25a3 3 0 01-3-3V8.25a3 3 0 013-3h8.25a.75.75 0 010 1.5H5.25z"
      />
    </symbol>
  </defs>
</svg>
